<svg width="65" height="65" viewBox="0 0 65 65" fill="none" xmlns="http://www.w3.org/2000/svg">
<g id="naslovnapizza" clip-path="url(#clip0)">
<path id="Vector" d="M11.0607 7.50016C11.083 7.49322 13.3955 6.77216 17.4089 6.8768C21.3281 6.97896 27.5667 7.92417 35.0321 11.8449C42.4981 15.7655 46.817 20.3656 49.1255 23.534C51.49 26.7788 52.2091 29.0917 52.2155 29.114C52.3078 29.4289 52.4496 29.7146 52.6271 29.9695L9.90572 59.687L10.1219 7.64695C10.4329 7.64844 10.7493 7.60282 11.0607 7.50016V7.50016Z" fill="#FFDB57"/>
<path id="Vector_2" d="M51.0258 26.5085L9.92456 55.0994L9.90572 59.6871L52.6271 29.9695C52.4496 29.7146 52.3078 29.4289 52.2155 29.114C52.2111 29.0997 51.9016 28.1039 51.0258 26.5085V26.5085Z" fill="#F6C134"/>
<path id="Vector_3" d="M37.787 6.60159C37.787 6.60159 37.787 6.60159 37.786 6.60109C37.786 6.60109 37.786 6.60109 37.787 6.60159C21.4337 -1.98663 9.70142 1.71238 9.20997 1.87455C7.65627 2.38534 6.81123 4.05904 7.32252 5.61274C7.83331 7.16643 9.50702 8.01147 11.0607 7.50018C11.083 7.49324 13.3955 6.77218 17.4089 6.87682C21.3281 6.97898 27.5667 7.92369 35.0322 11.8449C42.4981 15.7656 46.817 20.3656 49.1255 23.534C51.49 26.7788 52.2091 29.0917 52.2155 29.114C52.6767 30.6831 54.3227 31.5817 55.8917 31.1205C57.4608 30.6598 58.3589 29.0139 57.8982 27.4448C57.7524 26.9479 54.1387 15.1893 37.7855 6.6006C37.786 6.60109 37.786 6.60109 37.786 6.60109C37.7855 6.6006 37.7855 6.6006 37.7855 6.6006C37.785 6.6006 37.785 6.6006 37.785 6.6006L37.787 6.60159Z" fill="#FF9F34"/>
<path id="Vector_4" d="M55.5827 28.7411C55.5753 28.7163 54.766 26.1128 52.1049 22.4604C49.5068 18.8943 44.6454 13.7169 36.2426 9.3038C27.8394 4.89067 20.8178 3.82744 16.4066 3.71238C11.8894 3.59436 9.28632 4.40567 9.26152 4.4141C8.5603 4.6447 7.83776 4.62933 7.18613 4.41658C7.14993 4.80885 7.19109 5.215 7.3225 5.61272C7.83329 7.16642 9.507 8.01145 11.0607 7.50017C11.083 7.49322 13.3955 6.77217 17.4089 6.8768C21.3281 6.97896 27.5667 7.92417 35.0321 11.8449C42.4981 15.7655 46.817 20.3656 49.1255 23.534C51.49 26.7788 52.209 29.0917 52.2155 29.1145C52.6767 30.6836 54.3226 31.5822 55.8917 31.121C56.283 31.0059 56.6331 30.817 56.9306 30.574C56.3023 30.1549 55.8123 29.5222 55.5827 28.7411Z" fill="#FB8F2D"/>
<path id="Vector_5" d="M30.3919 26.2745C30.3919 29.0491 28.1429 31.2985 25.3683 31.2985C22.5936 31.2985 20.3442 29.0491 20.3442 26.2745C20.3442 23.4998 22.5936 21.2509 25.3683 21.2509C28.1429 21.2509 30.3919 23.4998 30.3919 26.2745Z" fill="#F2433B"/>
<path id="Vector_6" d="M25.3683 27.8673C23.1962 27.8673 21.3464 26.4887 20.6452 24.5591C20.4508 25.0942 20.3442 25.6719 20.3442 26.2744C20.3442 29.0491 22.5936 31.2985 25.3683 31.2985C28.1429 31.2985 30.3919 29.0491 30.3919 26.2744C30.3919 25.6719 30.2857 25.0942 30.0913 24.5591C29.3901 26.4887 27.5404 27.8673 25.3683 27.8673Z" fill="#D83636"/>
<path id="Vector_7" d="M9.99052 39.255C12.7255 39.2093 14.9293 36.9792 14.9293 34.2334C14.9293 31.5014 12.7478 29.2802 10.0322 29.2127L9.99052 39.255Z" fill="#F2433B"/>
<path id="Vector_8" d="M10.0049 35.8233L9.99052 39.255C12.726 39.2094 14.9293 36.9792 14.9293 34.2334C14.9293 33.6308 14.8232 33.0536 14.6283 32.518C13.938 34.4178 12.1334 35.7821 10.0049 35.8233V35.8233Z" fill="#D83636"/>
<path id="Vector_9" d="M39.2752 30.9281C36.5005 30.9281 34.2516 33.1771 34.2516 35.9517C34.2516 38.0454 35.5325 39.8397 37.3535 40.5944L44.2943 35.7662C44.1966 33.0779 41.9873 30.9281 39.2752 30.9281V30.9281Z" fill="#F2433B"/>
<path id="Vector_10" d="M42.7133 32.2909L34.6453 37.9031C35.1581 39.1181 36.1346 40.0891 37.3535 40.5939L44.2943 35.7657C44.2447 34.3965 43.6462 33.1681 42.7133 32.2909V32.2909Z" fill="#D83636"/>
<path id="Vector_11" d="M41.42 24.8309C44.0295 24.8309 46.1738 22.8408 46.4198 20.2962C44.8185 18.6047 42.7614 16.7614 40.1519 14.9448C37.9912 15.5067 36.3964 17.4705 36.3964 19.8068C36.3964 22.5814 38.6454 24.8309 41.42 24.8309V24.8309Z" fill="#F2433B"/>
<path id="Vector_12" d="M45.4771 19.3366C44.5636 20.5868 43.0872 21.3996 41.42 21.3996C39.2484 21.3996 37.3986 20.0215 36.6974 18.0924C36.503 18.6275 36.3964 19.2047 36.3964 19.8067C36.3964 22.5814 38.6454 24.8308 41.42 24.8308C44.0295 24.8308 46.1738 22.8407 46.4198 20.2962C46.1217 19.9808 45.8073 19.6609 45.4771 19.3366Z" fill="#D83636"/>
<path id="Vector_13" d="M21.098 14.5471C23.8726 14.5471 26.1221 12.2976 26.1221 9.52301C26.1221 9.06726 26.0601 8.6259 25.946 8.20636C22.5049 7.25371 19.5958 6.93385 17.4089 6.87682C17.213 6.87186 17.0221 6.86888 16.8336 6.86789C16.3531 7.63804 16.0744 8.54804 16.0744 9.52301C16.0744 12.2976 18.3233 14.5471 21.098 14.5471Z" fill="#F2433B"/>
<path id="Vector_14" d="M25.6866 8.1369C24.9036 9.89194 23.1441 11.1159 21.098 11.1159C18.9264 11.1159 17.0771 9.73821 16.3754 7.8096C16.181 8.34419 16.0744 8.92094 16.0744 9.52348C16.0744 12.2976 18.3233 14.5471 21.098 14.5471C23.8726 14.5471 26.1216 12.2981 26.1216 9.52348C26.1216 9.06724 26.0601 8.62637 25.946 8.20633C25.8587 8.18203 25.7734 8.16021 25.6866 8.1369Z" fill="#D83636"/>
<path id="Vector_15" d="M23.8394 43.6592C21.0652 43.6592 18.8158 45.9086 18.8158 48.6833C18.8158 50.1398 19.4362 51.451 20.4265 52.3684L28.4831 46.7646C27.7293 44.9421 25.9346 43.6592 23.8394 43.6592Z" fill="#F2433B"/>
<path id="Vector_16" d="M25.7992 44.0569L18.8217 48.9104C18.8827 50.2756 19.4882 51.499 20.427 52.3684L28.4831 46.7646C27.9798 45.5471 27.0112 44.5711 25.7992 44.0569Z" fill="#D83636"/>
</g>
<defs>
<clipPath id="clip0">
<rect width="65" height="65" fill="white"/>
</clipPath>
</defs>
</svg>
